<?xml version="1.0" standalone="no"?>
<!DOCTYPE svg PUBLIC "-//W3C//DTD SVG 20010904//EN"
 "http://www.w3.org/TR/2001/REC-SVG-20010904/DTD/svg10.dtd">
<svg version="1.0" xmlns="http://www.w3.org/2000/svg"
 width="200.000000pt" height="200.000000pt" viewBox="0 0 200.000000 200.000000"
 preserveAspectRatio="xMidYMid meet">
<metadata>
Created by potrace 1.11, written by Peter Selinger 2001-2013
</metadata>
<g transform="translate(0.000000,200.000000) scale(0.100000,-0.100000)"
fill="#000000" stroke="none">
<path d="M862 1546 c-85 -28 -137 -59 -197 -119 -173 -175 -171 -447 5 -617
177 -171 447 -173 613 -3 176 180 176 447 -2 623 -60 60 -111 90 -187 113 -64
18 -178 20 -232 3z m141 -27 c56 -2 67 -5 63 -18 -3 -9 -8 -29 -12 -44 -4 -19
-17 -32 -39 -41 -18 -8 -42 -24 -54 -37 -19 -20 -23 -21 -31 -9 -5 8 -10 25
-11 38 -1 12 -3 27 -4 32 -1 6 -3 14 -4 18 0 5 -13 15 -28 22 -16 7 -23 15
-15 17 6 3 10 8 7 13 -3 4 3 6 14 3 10 -3 22 0 26 6 3 6 10 9 14 7 4 -3 37 -6
74 -7z m-169 -40 c-8 -14 -21 -11 -21 5 0 8 6 12 14 9 7 -3 10 -9 7 -14z m10
-40 c32 -27 34 -33 21 -46 -9 -9 -23 -12 -36 -8 -17 6 -19 9 -8 16 11 7 11 11
1 21 -10 10 -15 10 -22 -2 -6 -8 -8 -21 -5 -29 4 -9 -1 -12 -14 -8 -11 3 -25
-1 -32 -9 -14 -17 -5 -44 15 -44 8 0 17 -6 19 -12 3 -7 8 2 12 20 9 40 24 51
40 29 7 -10 17 -17 22 -17 8 0 43 -61 43 -75 0 -3 -7 -5 -16 -5 -10 0 -14 5
-10 15 5 13 2 14 -16 4 -15 -8 -17 -13 -8 -19 9 -6 7 -10 -8 -14 -12 -4 -32
-20 -46 -37 -28 -33 -36 -36 -36 -14 0 8 -4 15 -10 15 -6 0 -6 -9 0 -26 6 -14
10 -33 10 -42 -1 -16 -1 -15 -11 1 -12 21 -42 22 -59 2 -18 -21 -5 -48 20 -40
15 5 18 3 14 -9 -3 -9 -2 -16 4 -16 5 0 12 -10 15 -21 4 -16 11 -20 24 -15 10
4 20 8 23 8 29 3 52 -7 83 -36 20 -18 50 -39 66 -46 l29 -12 -15 -45 c-9 -25
-22 -53 -30 -62 -8 -9 -30 -33 -49 -54 -19 -21 -34 -45 -34 -53 0 -15 -9 -18
-27 -6 -7 5 -11 31 -10 72 2 59 -1 70 -30 109 -26 35 -30 48 -22 63 16 30 2
53 -52 83 -29 15 -54 36 -56 46 -3 10 -9 17 -13 14 -8 -5 -27 35 -35 74 -2 13
6 44 18 70 12 25 22 53 22 61 0 8 7 15 15 15 8 0 14 9 14 18 -1 10 1 16 4 13
9 -9 32 15 25 27 -3 5 -1 7 5 3 6 -3 13 -2 17 3 3 6 12 8 20 4 9 -3 15 1 15 8
0 10 3 10 12 1 19 -19 30 -14 17 9 -8 15 -8 19 0 15 6 -4 11 -2 11 3 0 19 18
12 54 -20z m442 -57 c86 -104 124 -269 71 -313 -19 -16 -20 -18 -4 -19 20 0
13 -19 -20 -55 -10 -11 -18 -33 -17 -50 1 -16 -8 -43 -20 -60 -73 -106 -94
-101 -102 26 -2 33 -9 72 -16 87 -11 23 -19 26 -49 24 -29 -3 -41 2 -57 22
-16 21 -18 33 -11 63 4 21 13 39 18 41 6 2 11 10 11 18 0 8 7 17 16 21 15 5
15 7 1 15 -19 10 -12 38 9 38 19 0 18 49 -1 56 -8 4 -15 10 -15 16 0 5 5 6 12
2 8 -5 9 -2 5 9 -3 10 -2 17 2 17 5 0 13 -12 18 -26 8 -25 8 -25 31 -6 26 23
28 32 7 32 -22 0 -19 14 11 49 34 41 62 39 100 -7z m-206 8 c0 -5 -6 -10 -14
-10 -8 0 -18 5 -21 10 -3 6 3 10 14 10 12 0 21 -4 21 -10z m-55 -19 c5 -10
-21 -41 -35 -41 -4 0 -10 6 -13 14 -10 25 33 50 48 27z"/>
<path d="M1147 1233 c-15 -15 -6 -33 17 -33 13 0 26 -4 28 -10 4 -14 59 -28
85 -21 l22 6 -24 22 c-14 12 -25 16 -25 10 0 -8 -3 -8 -12 1 -9 9 -15 9 -27
-1 -11 -9 -13 -9 -8 0 11 19 -40 43 -56 26z"/>
<path d="M104 631 c-13 -14 1 -21 41 -21 l45 0 0 -85 c0 -50 4 -85 10 -85 6 0
10 35 10 85 l0 85 45 0 c29 0 45 4 45 13 0 9 -26 12 -96 12 -52 0 -97 -2 -100
-4z"/>
<path d="M323 624 c-2 -6 -3 -50 -1 -99 l3 -89 80 1 c100 2 95 1 95 13 0 6
-33 10 -79 10 l-79 0 1 33 2 32 63 -1 c44 0 62 4 62 13 0 9 -18 13 -65 13
l-65 0 0 30 0 30 80 0 c58 0 80 4 80 13 0 16 -170 18 -177 1z"/>
<path d="M542 632 c-18 -6 -17 -192 1 -192 10 0 13 11 12 35 -3 35 -3 35 41
35 37 0 46 -5 69 -34 14 -19 35 -36 46 -39 22 -6 19 1 -24 49 -18 21 -18 21
13 27 29 6 30 9 30 56 0 29 -5 53 -12 57 -13 8 -156 13 -176 6z m166 -59 l-3
-38 -75 0 -74 0 -1 38 -1 37 78 0 79 0 -3 -37z"/>
<path d="M765 631 c-10 -9 -5 -191 5 -191 11 0 13 12 10 48 -1 20 3 22 43 22
39 0 48 -4 71 -35 15 -19 34 -35 42 -35 11 0 8 9 -12 35 -25 33 -25 35 -6 35
11 0 25 6 31 14 14 17 11 95 -3 104 -13 7 -174 10 -181 3z m170 -58 l-1 -38
-75 0 -74 0 -3 38 -3 37 79 0 79 0 -2 -37z"/>
<path d="M1004 625 c-18 -13 -23 -170 -6 -187 9 -9 12 -2 12 30 l0 43 77 -3
78 -3 -1 -32 c-1 -21 4 -33 11 -33 10 0 13 23 11 89 0 49 -5 93 -9 97 -12 12
-157 11 -173 -1z m157 -30 c5 -64 10 -60 -74 -63 l-77 -2 0 40 0 40 75 0 c60
0 75 -3 76 -15z"/>
<path d="M1223 627 c-5 -9 -6 -53 -4 -160 1 -48 21 -40 21 9 0 33 1 34 40 34
35 0 47 -6 80 -42 46 -48 66 -45 25 4 -26 30 -26 33 -9 36 10 2 23 8 29 13 12
12 16 81 6 98 -10 16 -178 24 -188 8z m169 -29 c2 -6 2 -24 0 -39 -4 -27 -5
-27 -76 -26 l-71 2 -3 38 -3 37 75 0 c47 0 76 -4 78 -12z"/>
<path d="M1448 627 c-9 -25 -1 -168 10 -179 14 -14 158 -14 175 0 8 7 12 37
10 94 -2 105 -1 100 -13 93 -5 -3 -10 -44 -10 -91 l0 -84 -75 0 -75 0 0 84 c0
76 -11 117 -22 83z"/>
<path d="M1679 638 c-1 -2 -3 -47 -4 -100 -2 -74 0 -98 10 -98 9 0 12 21 11
76 -1 42 2 77 5 80 3 2 24 -19 45 -45 l39 -49 48 51 48 52 -2 -65 c-1 -92 0
-100 11 -100 13 0 13 187 0 195 -5 3 -31 -17 -57 -45 l-47 -51 -44 51 c-37 43
-58 58 -63 48z"/>
</g>
</svg>
