<?xml version="1.0" encoding="utf-8"?>
<!-- Generator: Adobe Illustrator 19.0.0, SVG Export Plug-In . SVG Version: 6.00 Build 0)  -->
<svg version="1.1" xmlns="http://www.w3.org/2000/svg" xmlns:xlink="http://www.w3.org/1999/xlink" x="0px" y="0px"
	 viewBox="0 0 1000 1000" style="enable-background:new 0 0 1000 1000;" xml:space="preserve">
<style type="text/css">
	.st0{fill:#C3DE92;}
	.st1{fill:#B4B4B4;}
	.st2{fill:#E4DCD6;}
	.st3{fill:#D0A49D;}
	.st4{fill:#9CD4D0;}
	.st5{fill:#FFFFFF;}
	.st6{fill:#FBB041;}
	.st7{fill:#F15B2B;}
	.st8{fill:#69B5E5;}
	.st9{fill:#29AAE1;}
	.st10{fill:#EC2227;}
	.st11{fill:#BE202E;}
	.st12{fill:#EE2E7C;}
	.st13{fill:#D91F5D;}
	.st14{fill:#9E2064;}
	.st15{fill:#108FCE;}
	.st16{fill:#177FC3;}
	.st17{fill:#8DCC93;}
	.st18{fill:#3DB54A;}
	.st19{fill:#2B3C90;}
	.st20{fill:#282561;}
</style>
<g id="Layer_1">
	<g>
		<g>
			<rect y="0" class="st0" width="69.2" height="389.2"/>
			<polygon class="st1" points="501.7,0 133.2,0 305.2,173.4 			"/>
			<rect y="412.6" class="st1" width="69.2" height="269.3"/>
			<rect x="92.5" y="948.6" class="st1" width="117.6" height="51.4"/>
			<rect y="705.2" class="st2" width="69.2" height="220.1"/>
			<rect y="948.6" class="st1" width="69.2" height="51.4"/>
			<rect x="792.5" y="676.3" class="st1" width="207.5" height="60.7"/>
			<polygon class="st1" points="925.8,526 792.5,613.1 792.5,652.9 1000,652.9 1000,191.5 925.8,191.5 			"/>
			<polygon class="st2" points="395.6,264.4 603.2,89.5 642.1,0 537,0 321.7,190 			"/>
			<polygon class="st1" points="412.1,281 477.7,347.2 712.5,158.2 902.5,158.2 902.5,0 667.5,0 622.5,103.8 			"/>
			<rect x="925.8" y="0" class="st3" width="74.2" height="158.2"/>
			<polygon class="st3" points="461.5,378.2 339.1,254.8 233.5,304 233.5,681.9 366.6,681.9 521.6,603 			"/>
			<rect x="92.5" y="705.2" class="st0" width="117.6" height="220.1"/>
			<polygon class="st1" points="233.5,948.6 233.5,1000 545.3,1000 458.1,948.6 			"/>
			<polygon class="st1" points="92.5,428.4 92.5,681.9 210.1,681.9 210.1,542 			"/>
			<polygon class="st1" points="556.9,735.1 527.8,626 384,699.2 468.3,922.6 702.8,850.4 			"/>
			<polygon class="st1" points="1000,760.3 792.5,760.3 792.5,878.9 945.6,1000 1000,1000 			"/>
			<polygon class="st1" points="233.5,705.2 233.5,925.3 444.4,925.3 361.3,705.2 			"/>
			<polygon class="st1" points="210.1,289.1 321.6,237.2 92.5,6.3 92.5,395.9 210.1,509.6 			"/>
			<polygon class="st2" points="490,940.3 591.3,1000 891.8,1000 725,868 			"/>
			<polygon class="st4" points="812.1,434.8 870.2,534.4 902.5,513.4 902.5,191.5 724.2,191.5 630.9,266.7 727.3,422 			"/>
			<polygon class="st0" points="586.3,715.8 769.2,860.5 769.2,600.4 850.7,547.2 797.6,456.2 713.1,443.5 612.5,281.4 495.4,375.8 
							"/>
			<path class="st5" d="M792.5,760.3H1000V737H792.5v-60.7H1000v-23.3H792.5v-39.9L925.8,526V191.5h74.2v-33.3h-74.2V0h-23.3v158.2
				h-190l-234.7,189L412.1,281l210.4-177.3L667.5,0h-25.4l-38.9,89.5l-207.6,175L321.7,190L537,0h-35.3L305.2,173.4L133.2,0h-64
				v389.2H0v23.3h69.2v269.3H0v23.3h69.2v220.1H0v23.3h69.2v51.4h23.3v-51.4h117.6v51.4h23.3v-51.4h224.6l87.2,51.4h46L490,940.3
				L725,868l166.9,132h53.7L792.5,878.9V760.3z M724.2,191.5h178.3v321.9l-32.2,21.1l-58.2-99.7L727.3,422l-96.4-155.3L724.2,191.5z
				 M612.5,281.4l100.6,162l84.4,12.7l53.1,91l-81.5,53.2v260L586.3,715.8l-90.9-340L612.5,281.4z M92.5,395.9V6.3l229.1,230.9
				l-111.5,51.9v220.5L92.5,395.9z M92.5,681.9V428.4L210.1,542v139.9H92.5z M233.5,681.9V304l105.6-49.2l122.4,123.4L521.6,603
				l-155.1,78.9H233.5z M92.5,925.3V705.2h117.6v220.1H92.5z M233.5,925.3V705.2h127.8l83.1,220.1H233.5z M468.3,922.6L384,699.2
				L527.8,626l29.2,109.1l145.8,115.3L468.3,922.6z"/>
		</g>
		<g>
			<g>
				<path class="st6" d="M169.2,596.1L169.2,596.1c0-19.1-15.4-34.5-34.5-34.5s-34.5,15.4-34.5,34.5c0,0-2.7,24.3,34.5,72.2
					C171.9,620.3,169.2,596.1,169.2,596.1z"/>
				<path class="st7" d="M134.7,668.3c37.2-48,34.5-72.2,34.5-72.2c0-19.1-15.4-34.5-34.5-34.5V668.3z"/>
				<circle class="st5" cx="134.7" cy="596.1" r="29.9"/>
			</g>
		</g>
		<g>
			<g>
				<path class="st8" d="M787.2,328.3L787.2,328.3c0-19.1-15.4-34.5-34.5-34.5c-19.1,0-34.5,15.4-34.5,34.5c0,0-2.7,24.3,34.5,72.2
					C789.9,352.6,787.2,328.3,787.2,328.3z"/>
				<path class="st9" d="M752.7,400.6c37.2-48,34.5-72.2,34.5-72.2c0-19.1-15.4-34.5-34.5-34.5V400.6z"/>
				<circle class="st5" cx="752.7" cy="328.3" r="29.9"/>
			</g>
		</g>
		<g>
			<g>
				<path class="st10" d="M171.7,328.3L171.7,328.3c0-19.1-15.4-34.5-34.5-34.5c-19.1,0-34.5,15.4-34.5,34.5c0,0-2.7,24.3,34.5,72.2
					C174.4,352.6,171.7,328.3,171.7,328.3z"/>
				<path class="st11" d="M137.2,400.6c37.2-48,34.5-72.2,34.5-72.2c0-19.1-15.4-34.5-34.5-34.5V400.6z"/>
				<circle class="st5" cx="137.2" cy="328.3" r="29.9"/>
			</g>
		</g>
		<g>
			<g>
				<path class="st12" d="M390.6,594.3L390.6,594.3c0-19.1-15.4-34.5-34.5-34.5c-19.1,0-34.5,15.4-34.5,34.5c0,0-2.7,24.3,34.5,72.2
					C393.3,618.6,390.6,594.3,390.6,594.3z"/>
				<path class="st13" d="M356.1,666.5c37.2-48,34.5-72.2,34.5-72.2c0-19.1-15.4-34.5-34.5-34.5V666.5z"/>
				<circle class="st5" cx="356.1" cy="594.3" r="29.9"/>
			</g>
		</g>
		<g>
			<g>
				<path class="st13" d="M515.5,245.6L515.5,245.6c0-19.1-15.4-34.5-34.5-34.5c-19.1,0-34.5,15.4-34.5,34.5c0,0-2.7,24.3,34.5,72.2
					C518.2,269.8,515.5,245.6,515.5,245.6z"/>
				<path class="st14" d="M481,317.8c37.2-48,34.5-72.2,34.5-72.2c0-19.1-15.4-34.5-34.5-34.5V317.8z"/>
				<circle class="st5" cx="481" cy="245.6" r="29.9"/>
			</g>
		</g>
		<g>
			<g>
				<path class="st15" d="M871.2,562L871.2,562c0-19.1-15.4-34.5-34.5-34.5c-19.1,0-34.5,15.4-34.5,34.5c0,0-2.7,24.3,34.5,72.2
					C873.9,586.3,871.2,562,871.2,562z"/>
				<path class="st16" d="M836.7,634.2c37.2-48,34.5-72.2,34.5-72.2c0-19.1-15.4-34.5-34.5-34.5V634.2z"/>
				<circle class="st5" cx="836.7" cy="562" r="29.9"/>
			</g>
		</g>
		<g>
			<g>
				<path class="st17" d="M336.6,75.8L336.6,75.8c0-19.1-15.4-34.5-34.5-34.5c-19.1,0-34.5,15.4-34.5,34.5c0,0-2.7,24.3,34.5,72.2
					C339.3,100,336.6,75.8,336.6,75.8z"/>
				<path class="st18" d="M302.1,148c37.2-48,34.5-72.2,34.5-72.2c0-19.1-15.4-34.5-34.5-34.5V148z"/>
				<circle class="st5" cx="302.1" cy="75.8" r="29.9"/>
			</g>
		</g>
		<g>
			<g>
				<path class="st19" d="M901,67.8L901,67.8c0-19.1-15.4-34.5-34.5-34.5S832,48.8,832,67.8c0,0-2.7,24.3,34.5,72.2
					C903.7,92.1,901,67.8,901,67.8z"/>
				<path class="st20" d="M866.5,140c37.2-48,34.5-72.2,34.5-72.2c0-19.1-15.4-34.5-34.5-34.5V140z"/>
				<circle class="st5" cx="866.5" cy="67.8" r="29.9"/>
			</g>
		</g>
	</g>
</g>
<g id="Layer_2">
</g>
</svg>
